/* XPM */
static char * icon32x32_xpm[] = {
"32 32 10 1",
" 	c None",
".	c #3F3928",
"+	c #7E7250",
"@	c #FCE4A0",
"#	c #BDAB78",
"$	c #F6AB8E",
"%	c #F0727C",
"&	c #E40058",
"*	c #EA396A",
"=	c #000000",
"                                ",
"                                ",
"            .+++++++.           ",
"            +@@@@@@@+           ",
"        .+++#@$%%%$@#+++.       ",
"        +@@@@@%&&&%@@@@@+       ",
"      .+#@$%%%%%%%$@@@@@#+.     ",
"      +@@@%&&&%@@@@@@@@@@@+     ",
"      +@$%*&&&%@@@@@@@@@@@+     ",
"      +@%&&&&&%@@@@@@@@@@@+     ",
"    .+#@%&&&*%$@@@@@@@@@@@#+.   ",
"    +@@@%&&&%@@@@@@@@@@@@@@@+   ",
"    +@$%%%%%$@@@@@@@@@@@@@@@+   ",
"    +@%&%@@@@@@@@@@@@@@@@@@@+   ",
"    +@%&%@@@@@@@@@@@@@@@@@@@+   ",
"    +@%&%@@@@@@@@@@@@@@@@@@@+   ",
"    +@$%$@@@@@@@@@@@@@@@@@@@+   ",
"    +@@@@@@@@@@@@@@@@@@@@@@@+   ",
"    +@@@@@@@@@@@@@@@@@@@@@@@+   ",
"    +@@@@@@@@@@@@@@@@@@@@@@@+   ",
"    .+#@@@@@@@@@@@@@@@#+#@#+.   ",
"      +@@@@@@@@@@@@@@@+=+@+     ",
"      +@@@@@@@@@@@#+++++#@+     ",
"      +@@@@@@@@@@@+===+@@@+     ",
"      .+#@@@@@#+++.=.+#@#+.     ",
"        +@@@@@+=====+@@@+       ",
"        .+++#@#+++++++++.       ",
"            +@@@@@@@+           ",
"            .+++++++.           ",
"                                ",
"                                ",
"                                "};
